<svg width="171" height="52" viewBox="0 0 171 52" fill="none" xmlns="http://www.w3.org/2000/svg">
<path d="M157.26 0.000166594H13.6144C13.0908 0.000166594 12.5735 0.000166594 12.0513 0.00272959C11.6141 0.00529258 11.1805 0.0127381 10.7391 0.0190045C9.78032 0.0291307 8.82377 0.104834 7.87779 0.245458C6.93313 0.389143 6.01807 0.66003 5.16355 1.04896C4.31007 1.44117 3.53023 1.95082 2.8523 2.55941C2.17081 3.16628 1.60274 3.86774 1.16994 4.63683C0.735932 5.40438 0.434992 6.22688 0.27751 7.07592C0.11853 7.92389 0.0329819 8.78165 0.0216325 9.64148C0.00838169 10.0344 0.00698236 10.4286 0 10.8216V40.4424C0.00698236 40.8403 0.00838169 41.2258 0.0216325 41.6238C0.0329853 42.4835 0.118534 43.3412 0.27751 44.1892C0.434557 45.0387 0.735515 45.8617 1.16994 46.6296C1.60256 47.3962 2.1707 48.0948 2.8523 48.6983C3.52766 49.3096 4.308 49.8196 5.16355 50.2088C6.01807 50.5987 6.93303 50.8713 7.87779 51.0172C8.82393 51.1567 9.78039 51.2324 10.7391 51.2437C11.1805 51.2524 11.6141 51.2574 12.0513 51.2574C12.5735 51.26 13.0909 51.26 13.6144 51.26H157.26C157.773 51.26 158.294 51.26 158.808 51.2574C159.242 51.2574 159.689 51.2524 160.124 51.2437C161.081 51.233 162.035 51.1572 162.98 51.0172C163.927 50.8703 164.847 50.5978 165.705 50.2088C166.56 49.8193 167.34 49.3094 168.014 48.6983C168.693 48.0924 169.263 47.3944 169.701 46.6296C170.133 45.8612 170.43 45.0383 170.585 44.1892C170.744 43.3411 170.832 42.4837 170.849 41.6238C170.855 41.2258 170.855 40.8403 170.855 40.4424C170.866 39.9768 170.866 39.5138 170.866 39.0407V12.2207C170.866 11.7514 170.866 11.2858 170.855 10.8216C170.855 10.4286 170.855 10.0344 170.849 9.64143C170.832 8.78152 170.744 7.92395 170.585 7.07587C170.43 6.22732 170.131 5.40488 169.701 4.63678C168.819 3.09523 167.422 1.84042 165.705 1.04884C164.847 0.660864 163.927 0.390049 162.98 0.245343C162.036 0.104099 161.081 0.0283695 160.124 0.0188251C159.689 0.0125715 159.242 0.00506191 158.808 0.00256299C158.294 0 157.773 0 157.26 0V0.000166594Z" fill="#333333"/>
<path d="M12.0636 50.139C11.6286 50.139 11.2041 50.134 10.7724 50.1253C9.87826 50.1148 8.98617 50.045 8.10351 49.9163C7.28046 49.7891 6.48314 49.5525 5.73787 49.2142C4.99943 48.8787 4.32591 48.4389 3.74312 47.9114C3.15189 47.3902 2.65965 46.7856 2.28595 46.1218C1.90811 45.4536 1.64663 44.7374 1.5106 43.9981C1.36371 43.2037 1.28423 42.4005 1.27286 41.5953C1.2638 41.325 1.25195 40.4252 1.25195 40.4252V10.8219C1.25195 10.8219 1.26458 9.93587 1.27293 9.67556C1.28382 8.87165 1.36283 8.06965 1.50929 7.2765C1.64557 6.53519 1.90724 5.81691 2.28529 5.14653C2.65762 4.48311 3.14712 3.87814 3.73479 3.35506C4.3218 2.82701 4.99747 2.38487 5.73717 2.04477C6.48073 1.70759 7.27653 1.47261 8.09793 1.34772C8.98349 1.21773 9.87867 1.14745 10.7759 1.13747L12.0643 1.12183H158.806L160.11 1.1381C160.999 1.14758 161.886 1.21723 162.763 1.34646C163.592 1.47293 164.398 1.70955 165.149 2.04853C166.631 2.73394 167.838 3.8183 168.597 5.14966C168.97 5.81541 169.227 6.52783 169.363 7.26274C169.51 8.0624 169.592 8.8707 169.61 9.68119C169.614 10.0441 169.614 10.4339 169.614 10.8219C169.625 11.3025 169.625 11.7599 169.625 12.221V39.041C169.625 39.5066 169.625 39.9609 169.614 40.4189C169.614 40.8356 169.614 41.2174 169.608 41.6103C169.592 42.4064 169.511 43.2003 169.364 43.9856C169.231 44.7302 168.971 45.452 168.593 46.1257C168.217 46.7823 167.728 47.3816 167.144 47.9014C166.56 48.4317 165.886 48.8741 165.145 49.2118C164.395 49.5526 163.592 49.7901 162.763 49.9163C161.88 50.0457 160.988 50.1156 160.094 50.1253C159.676 50.134 159.239 50.139 158.813 50.139L157.266 50.1416L12.0636 50.139Z" fill="white"/>
<path d="M35.6964 25.4883C35.7124 24.376 36.0416 23.2855 36.6533 22.3181C37.2652 21.3507 38.1396 20.5378 39.1955 19.9552C38.5247 19.0955 37.6399 18.388 36.6112 17.8888C35.5824 17.3897 34.4381 17.1126 33.2692 17.0798C30.7759 16.8449 28.3586 18.4188 27.0879 18.4188C25.7927 18.4188 23.8365 17.1031 21.7298 17.1421C20.3673 17.1816 19.0392 17.5372 17.8754 18.1742C16.7113 18.8114 15.7512 19.7082 15.0883 20.7773C12.2166 25.2395 14.3586 31.7974 17.1094 35.4043C18.4858 37.1705 20.0943 39.1433 22.199 39.0734C24.2586 38.9967 25.0278 37.8946 27.5139 37.8946C29.9768 37.8946 30.6985 39.0734 32.8459 39.0289C35.056 38.9967 36.4484 37.2549 37.7764 35.472C38.7653 34.2134 39.5262 32.8226 40.031 31.3508C38.747 30.8635 37.6514 30.0477 36.8805 29.005C36.1097 27.9625 35.6979 26.7395 35.6964 25.4883Z" fill="#333333"/>
<path d="M31.6439 14.7064C32.8489 13.4081 33.4425 11.7394 33.2988 10.0547C31.4579 10.2282 29.7573 11.0179 28.536 12.2663C27.9388 12.8763 27.4815 13.5857 27.1902 14.3543C26.8988 15.123 26.779 15.9356 26.8378 16.7457C27.7585 16.7543 28.6695 16.5752 29.5021 16.2219C30.3346 15.8687 31.0669 15.3504 31.6439 14.7064Z" fill="#333333"/>
<path d="M60.4018 34.7793H53.6431L52.02 39.0806H49.1572L55.559 23.167H58.5333L64.9351 39.0806H62.0236L60.4018 34.7793ZM54.3432 32.7945H59.7006L57.0594 25.8138H56.9855L54.3432 32.7945Z" fill="#333333"/>
<path d="M78.7635 33.2791C78.7635 36.8846 76.6133 39.201 73.3684 39.201C72.5465 39.2396 71.729 39.0697 71.0097 38.7107C70.2903 38.3516 69.6982 37.8182 69.3009 37.1711H69.2395V42.9179H66.5859V27.4773H69.1544V29.4071H69.2033C69.6188 28.7631 70.2209 28.2324 70.9457 27.8712C71.6706 27.5101 72.491 27.3319 73.3196 27.3559C76.6007 27.3559 78.7635 29.6836 78.7635 33.2791ZM76.036 33.2791C76.036 30.9301 74.6833 29.3858 72.6196 29.3858C70.5922 29.3858 69.2284 30.9627 69.2284 33.2791C69.2284 35.6168 70.5922 37.1824 72.6196 37.1824C74.6833 37.1824 76.036 35.6494 76.036 33.2791Z" fill="#333333"/>
<path d="M92.9897 33.2801C92.9897 36.8856 90.8388 39.202 87.594 39.202C86.7721 39.2406 85.9546 39.0706 85.2353 38.7117C84.5159 38.3526 83.9237 37.8191 83.5265 37.1721H83.4651V42.9188H80.8115V27.4782H83.38V29.408H83.4288C83.8444 28.7641 84.4465 28.2334 85.1713 27.8722C85.8962 27.511 86.7165 27.3329 87.5451 27.3569C90.8263 27.3569 92.9897 29.6846 92.9897 33.2801ZM90.2616 33.2801C90.2616 30.9311 88.9089 29.3868 86.8452 29.3868C84.8177 29.3868 83.454 30.9636 83.454 33.2801C83.454 35.6178 84.8177 37.1834 86.8452 37.1834C88.9089 37.1834 90.2616 35.6503 90.2616 33.2801Z" fill="#333333"/>
<path d="M102.391 34.6452C102.588 36.2233 104.296 37.2594 106.63 37.2594C108.867 37.2594 110.476 36.2232 110.476 34.8004C110.476 33.5651 109.506 32.8256 107.208 32.3188L104.91 31.8219C101.654 31.1161 100.142 29.7495 100.142 27.5319C100.142 24.7861 102.808 22.9001 106.593 22.9001C110.341 22.9001 112.909 24.7861 112.996 27.5319H110.317C110.157 25.9437 108.694 24.9851 106.556 24.9851C104.419 24.9851 102.956 25.955 102.956 27.3667C102.956 28.4917 103.89 29.1537 106.176 29.6606L108.129 30.091C111.767 30.8632 113.277 32.1747 113.277 34.5024C113.277 37.4797 110.636 39.3443 106.434 39.3443C102.501 39.3443 99.8463 37.5234 99.6748 34.6451L102.391 34.6452Z" fill="#333333"/>
<path d="M119.012 24.7324V27.4782H121.471V29.3641H119.012V35.7603C119.012 36.754 119.505 37.217 120.585 37.217C120.877 37.2124 121.169 37.1941 121.458 37.1619V39.0366C120.973 39.1181 120.479 39.155 119.984 39.1467C117.367 39.1467 116.346 38.2644 116.346 36.0143V29.3641H114.467V27.4782H116.346V24.7324H119.012Z" fill="#333333"/>
<path d="M122.894 33.2798C122.894 29.6293 125.289 27.3354 129.025 27.3354C132.773 27.3354 135.158 29.6293 135.158 33.2798C135.158 36.9404 132.786 39.2243 129.025 39.2243C125.265 39.2243 122.894 36.9404 122.894 33.2798ZM132.454 33.2798C132.454 30.7756 131.175 29.2977 129.025 29.2977C126.875 29.2977 125.596 30.7869 125.596 33.2798C125.596 35.794 126.875 37.2608 129.025 37.2608C131.175 37.2608 132.454 35.794 132.454 33.2798Z" fill="#333333"/>
<path d="M137.336 27.4782H139.867V29.453H139.928C140.099 28.8362 140.502 28.2912 141.068 27.9095C141.635 27.5277 142.33 27.3325 143.037 27.3567C143.343 27.3559 143.648 27.3857 143.947 27.4457V29.6733C143.561 29.5673 143.159 29.5188 142.755 29.5294C142.369 29.5153 141.985 29.5763 141.628 29.7082C141.271 29.84 140.951 30.0396 140.688 30.2932C140.425 30.5468 140.227 30.8484 140.106 31.1773C139.986 31.5062 139.946 31.8547 139.99 32.1987V39.0805H137.336V27.4782Z" fill="#333333"/>
<path d="M156.189 35.6724C155.832 37.7786 153.547 39.224 150.623 39.224C146.862 39.224 144.527 36.9626 144.527 33.3347C144.527 29.6955 146.875 27.3352 150.512 27.3352C154.088 27.3352 156.337 29.5403 156.337 33.0581V33.874H147.206V34.018C147.165 34.4449 147.225 34.8751 147.382 35.2798C147.539 35.6845 147.79 36.0546 148.118 36.3655C148.448 36.6763 148.847 36.9208 149.289 37.0826C149.732 37.2445 150.207 37.3201 150.684 37.3042C151.311 37.357 151.941 37.2267 152.478 36.9326C153.016 36.6386 153.434 36.1966 153.67 35.6724H156.189ZM147.219 32.2096H153.682C153.706 31.8257 153.642 31.4415 153.492 31.081C153.342 30.7207 153.112 30.392 152.813 30.1154C152.516 29.839 152.158 29.6206 151.761 29.4743C151.365 29.3279 150.94 29.2567 150.512 29.2649C150.079 29.2626 149.651 29.3372 149.251 29.4841C148.851 29.6311 148.488 29.8478 148.181 30.1216C147.876 30.3954 147.633 30.7208 147.467 31.0792C147.303 31.4375 147.217 31.8217 147.219 32.2096Z" fill="#333333"/>
<path d="M54.0121 11.1891C54.5684 11.1533 55.1266 11.2287 55.6466 11.4099C56.1665 11.5912 56.6351 11.8737 57.0185 12.2372C57.402 12.6007 57.6909 13.036 57.8642 13.5118C58.0376 13.9876 58.0911 14.4919 58.021 14.9886C58.021 17.4314 56.5499 18.8356 54.0121 18.8356H50.9346V11.1891H54.0121ZM52.2578 17.7542H53.8643C54.2618 17.7756 54.6596 17.717 55.0287 17.583C55.3979 17.4489 55.7291 17.2426 55.9983 16.9793C56.2674 16.7158 56.4678 16.4018 56.5846 16.0602C56.7015 15.7185 56.7321 15.3577 56.674 15.0041C56.7278 14.6519 56.6942 14.2934 56.5756 13.9542C56.4568 13.6151 56.256 13.3037 55.9876 13.0423C55.719 12.781 55.3893 12.5762 55.0223 12.4426C54.6552 12.309 54.2597 12.25 53.8643 12.2697H52.2578V17.7542Z" fill="#333333"/>
<path d="M59.5172 15.9468C59.4768 15.5676 59.5251 15.1851 59.6592 14.8236C59.7931 14.4621 60.0099 14.1298 60.2953 13.8479C60.5809 13.5659 60.9289 13.3408 61.317 13.1866C61.7052 13.0325 62.125 12.9529 62.5494 12.9529C62.9739 12.9529 63.3937 13.0325 63.7818 13.1866C64.17 13.3408 64.518 13.5659 64.8034 13.8479C65.089 14.1298 65.3056 14.4621 65.4397 14.8236C65.5736 15.1851 65.622 15.5676 65.5816 15.9468C65.6227 16.3265 65.5751 16.7097 65.4414 17.0717C65.3078 17.4338 65.0911 17.7667 64.8056 18.0491C64.52 18.3316 64.1717 18.5574 63.7832 18.7118C63.3947 18.8663 62.9744 18.9461 62.5494 18.9461C62.1244 18.9461 61.7042 18.8663 61.3157 18.7118C60.927 18.5574 60.5787 18.3316 60.2932 18.0491C60.0077 17.7667 59.7911 17.4338 59.6575 17.0717C59.5238 16.7097 59.4761 16.3265 59.5172 15.9468ZM64.2764 15.9468C64.2764 14.6961 63.6503 13.9646 62.5515 13.9646C61.4485 13.9646 60.828 14.6961 60.828 15.947C60.828 17.2077 61.4486 17.9335 62.5515 17.9335C63.6503 17.9335 64.2764 17.2027 64.2764 15.9468Z" fill="#333333"/>
<path d="M73.6391 18.8348H72.3229L70.994 14.5847H70.8936L69.5702 18.8348H68.2664L66.4941 13.0642H67.7812L68.933 17.4674H69.0279L70.3497 13.0642H71.5671L72.8891 17.4674H72.9894L74.1356 13.0642H75.4046L73.6391 18.8348Z" fill="#333333"/>
<path d="M76.8984 13.0654H78.12V13.9821H78.2148C78.3756 13.6528 78.647 13.3768 78.9909 13.1925C79.3348 13.0082 79.7342 12.9248 80.1335 12.9539C80.4463 12.9329 80.7604 12.9752 81.0526 13.0778C81.3447 13.1805 81.6075 13.3408 81.8212 13.547C82.035 13.753 82.1942 13.9997 82.2873 14.2686C82.3804 14.5375 82.4049 14.8217 82.359 15.1002V18.8357H81.0901V15.3862C81.0901 14.4589 80.6411 13.9977 79.7027 13.9977C79.4902 13.9888 79.2781 14.0213 79.0811 14.0928C78.8839 14.1644 78.7064 14.2733 78.5605 14.4123C78.4147 14.5512 78.304 14.7166 78.2362 14.8976C78.1684 15.0784 78.1448 15.2702 78.1674 15.46V18.8358H76.8984V13.0654Z" fill="#333333"/>
<path d="M84.3652 10.8113H85.6341V18.8345H84.3652V10.8113Z" fill="#333333"/>
<path d="M87.4166 15.9471C87.3762 15.5679 87.4246 15.1852 87.5586 14.8237C87.6926 14.4622 87.9094 14.1299 88.1948 13.848C88.4804 13.5661 88.8284 13.3408 89.2166 13.1868C89.6049 13.0326 90.0247 12.9529 90.4492 12.9529C90.8737 12.9529 91.2935 13.0326 91.6816 13.1868C92.0698 13.3408 92.4178 13.5661 92.7034 13.848C92.989 14.1299 93.2056 14.4622 93.3396 14.8237C93.4737 15.1852 93.522 15.5679 93.4816 15.9471C93.5229 16.3267 93.475 16.7098 93.3414 17.072C93.2076 17.434 92.991 17.7669 92.7054 18.0494C92.4198 18.3318 92.0716 18.5575 91.683 18.7121C91.2944 18.8665 90.8741 18.9463 90.4492 18.9463C90.0241 18.9463 89.6039 18.8665 89.2153 18.7121C88.8267 18.5575 88.4784 18.3318 88.1928 18.0494C87.9073 17.7669 87.6907 17.434 87.557 17.072C87.4234 16.7098 87.3755 16.3267 87.4166 15.9471ZM92.1758 15.9471C92.1758 14.6962 91.5497 13.9648 90.4509 13.9648C89.3479 13.9648 88.7274 14.6962 88.7274 15.9471C88.7274 17.208 89.348 17.9338 90.4509 17.9338C91.5497 17.9338 92.1758 17.203 92.1758 15.9471Z" fill="#333333"/>
<path d="M94.8193 17.2016C94.8193 16.163 95.6811 15.5641 97.2108 15.479L98.9524 15.3889V14.8908C98.9524 14.2813 98.5034 13.9373 97.636 13.9373C96.9276 13.9373 96.4368 14.1706 96.296 14.5785H95.0675C95.1972 13.5874 96.2361 12.9517 97.6947 12.9517C99.3066 12.9517 100.216 13.6719 100.216 14.8908V18.8336H98.9942V18.0225H98.8938C98.69 18.3134 98.4039 18.5506 98.0646 18.7098C97.7252 18.869 97.345 18.9444 96.9626 18.9286C96.6926 18.9538 96.4199 18.9279 96.1617 18.8527C95.9035 18.7775 95.6659 18.6546 95.464 18.4918C95.2621 18.3292 95.1003 18.1303 94.9894 17.9081C94.8783 17.6859 94.8203 17.4452 94.8193 17.2016ZM98.9524 16.7085V16.2261L97.3822 16.3162C96.4968 16.3694 96.0952 16.6397 96.0952 17.1484C96.0952 17.6678 96.5972 17.97 97.2874 17.97C97.4898 17.9885 97.6941 17.97 97.8883 17.9162C98.0825 17.8622 98.2625 17.7737 98.4179 17.656C98.5732 17.5384 98.7006 17.3938 98.7924 17.2311C98.8842 17.0682 98.9386 16.8906 98.9524 16.7085Z" fill="#333333"/>
<path d="M101.869 15.9455C101.869 14.1221 102.914 12.9669 104.538 12.9669C104.94 12.9504 105.339 13.0368 105.688 13.2161C106.037 13.3953 106.322 13.6601 106.51 13.9793H106.605V10.8101H107.874V18.8332H106.658V17.9215H106.557C106.355 18.2386 106.06 18.5 105.704 18.6775C105.348 18.855 104.945 18.9418 104.538 18.9283C102.903 18.9283 101.869 17.7732 101.869 15.9455ZM103.18 15.9455C103.18 17.1693 103.823 17.9058 104.898 17.9058C105.967 17.9058 106.628 17.1587 106.628 15.9505C106.628 14.7478 105.96 13.9901 104.898 13.9901C103.83 13.9901 103.18 14.7316 103.18 15.9455Z" fill="#333333"/>
<path d="M113.138 15.9471C113.098 15.5679 113.146 15.1854 113.28 14.8239C113.414 14.4623 113.631 14.1301 113.916 13.8481C114.202 13.5662 114.55 13.341 114.938 13.1869C115.326 13.0327 115.746 12.9531 116.171 12.9531C116.595 12.9531 117.015 13.0327 117.403 13.1869C117.791 13.341 118.139 13.5662 118.425 13.8481C118.71 14.1301 118.927 14.4623 119.061 14.8239C119.195 15.1854 119.243 15.5679 119.203 15.9471C119.244 16.3268 119.196 16.71 119.062 17.072C118.929 17.434 118.712 17.7669 118.427 18.0494C118.141 18.3318 117.793 18.5576 117.404 18.712C117.016 18.8666 116.596 18.9463 116.171 18.9463C115.746 18.9463 115.325 18.8666 114.937 18.712C114.548 18.5576 114.2 18.3318 113.914 18.0494C113.629 17.7669 113.412 17.434 113.279 17.072C113.145 16.71 113.097 16.3268 113.138 15.9471ZM117.897 15.9471C117.897 14.6963 117.271 13.9649 116.173 13.9649C115.07 13.9649 114.449 14.6963 114.449 15.9472C114.449 17.2079 115.07 17.9338 116.173 17.9338C117.271 17.9338 117.897 17.203 117.897 15.9471Z" fill="#333333"/>
<path d="M120.899 13.0639H122.121V13.9806H122.216C122.377 13.6514 122.648 13.3753 122.992 13.1911C123.336 13.0068 123.735 12.9234 124.135 12.9524C124.447 12.9314 124.762 12.9737 125.054 13.0764C125.346 13.179 125.608 13.3393 125.822 13.5455C126.036 13.7516 126.195 13.9983 126.288 14.2671C126.381 14.536 126.406 14.8202 126.36 15.0987V18.8343H125.091V15.3847C125.091 14.4574 124.642 13.9962 123.704 13.9962C123.491 13.9874 123.279 14.0198 123.082 14.0913C122.885 14.1629 122.707 14.2719 122.562 14.4108C122.416 14.5497 122.305 14.7151 122.237 14.8961C122.169 15.0769 122.146 15.2687 122.168 15.4585V18.8344H120.899V13.0639Z" fill="#333333"/>
<path d="M133.536 11.6262V13.0891H134.929V14.0485H133.536V17.0156C133.536 17.6201 133.814 17.8848 134.445 17.8848C134.607 17.8844 134.769 17.8755 134.929 17.8585V18.807C134.701 18.8437 134.47 18.8632 134.239 18.8652C132.828 18.8652 132.266 18.4198 132.266 17.3072V14.0483H131.245V13.0891H132.266V11.6262H133.536Z" fill="#333333"/>
<path d="M136.668 10.8103H137.926V13.9903H138.026C138.195 13.6579 138.474 13.3803 138.824 13.1954C139.175 13.0105 139.581 12.9271 139.987 12.9565C140.298 12.9414 140.609 12.9881 140.898 13.0931C141.187 13.1982 141.446 13.3593 141.658 13.5647C141.869 13.7703 142.027 14.0151 142.121 14.2819C142.215 14.5485 142.242 14.8306 142.201 15.1078V18.8335H140.931V15.3888C140.931 14.467 140.452 14.0003 139.556 14.0003C139.338 13.9842 139.118 14.0111 138.913 14.0791C138.708 14.147 138.522 14.2546 138.367 14.3939C138.213 14.5332 138.095 14.7012 138.02 14.8858C137.946 15.0705 137.918 15.2676 137.937 15.4633V18.8334H136.668V10.8103Z" fill="#333333"/>
<path d="M149.577 17.2758C149.405 17.8032 149.031 18.2594 148.521 18.5646C148.013 18.8698 147.399 19.0045 146.791 18.9453C146.367 18.9553 145.947 18.8825 145.557 18.7319C145.169 18.5812 144.82 18.3565 144.538 18.0731C144.255 17.7896 144.045 17.4545 143.921 17.0908C143.796 16.727 143.762 16.3435 143.821 15.9668C143.765 15.5889 143.799 15.2045 143.922 14.8398C144.046 14.4749 144.255 14.1382 144.536 13.8524C144.817 13.5665 145.164 13.3381 145.551 13.1828C145.94 13.0275 146.361 12.9488 146.785 12.952C148.574 12.952 149.654 14.049 149.654 15.861V16.2584H145.113V16.3222C145.093 16.534 145.123 16.7471 145.2 16.948C145.277 17.1489 145.401 17.333 145.563 17.4888C145.723 17.6443 145.92 17.768 146.137 17.8518C146.354 17.9356 146.589 17.9778 146.826 17.9753C147.129 18.008 147.436 17.9591 147.709 17.8345C147.982 17.7098 148.207 17.5154 148.356 17.2758H149.577ZM145.113 15.4162H148.361C148.377 15.2224 148.347 15.0279 148.274 14.845C148.202 14.6622 148.087 14.4949 147.939 14.3542C147.789 14.2134 147.609 14.1021 147.409 14.0276C147.209 13.9531 146.995 13.9168 146.778 13.9213C146.559 13.9188 146.341 13.9558 146.138 14.03C145.934 14.1043 145.75 14.2144 145.594 14.3537C145.44 14.493 145.317 14.6587 145.234 14.8412C145.152 15.0237 145.11 15.2192 145.113 15.4162Z" fill="#333333"/>
</svg>
