<svg width="33" height="33" viewBox="0 0 33 33" fill="none" xmlns="http://www.w3.org/2000/svg">
<path d="M25.9484 8.05574C25.9413 8.04189 25.9294 8.03103 25.915 8.02512C24.2471 7.25987 22.487 6.71419 20.6787 6.40173C20.6623 6.39867 20.6453 6.40088 20.6302 6.40803C20.6151 6.41517 20.6027 6.4269 20.5946 6.44154C20.3549 6.87654 20.1374 7.32336 19.9427 7.78029C17.9935 7.4844 16.0108 7.4844 14.0616 7.78029C13.8657 7.3222 13.6446 6.87527 13.3994 6.44154C13.391 6.42722 13.3785 6.41576 13.3635 6.40866C13.3485 6.40156 13.3317 6.39914 13.3153 6.40173C11.5068 6.71353 9.74658 7.25925 8.07891 8.02516C8.06463 8.03121 8.05259 8.04155 8.04443 8.05474C4.70941 13.0351 3.79583 17.8931 4.244 22.6909C4.24526 22.7027 4.24888 22.714 4.25462 22.7244C4.26037 22.7347 4.26814 22.7438 4.27747 22.7511C6.21942 24.1889 8.39152 25.2865 10.7011 25.9968C10.7173 26.0017 10.7347 26.0015 10.7508 25.9962C10.767 25.9909 10.7811 25.9808 10.7913 25.9673C11.2874 25.2923 11.7269 24.5776 12.1054 23.8304C12.1106 23.8202 12.1136 23.8089 12.1142 23.7974C12.1147 23.786 12.1128 23.7745 12.1086 23.7638C12.1044 23.7531 12.0979 23.7434 12.0897 23.7354C12.0815 23.7273 12.0717 23.7211 12.0609 23.7172C11.3678 23.452 10.6967 23.1323 10.0541 22.7611C10.0425 22.7543 10.0327 22.7446 10.0256 22.7331C10.0185 22.7215 10.0144 22.7084 10.0136 22.6949C10.0128 22.6814 10.0153 22.6679 10.021 22.6556C10.0267 22.6433 10.0353 22.6326 10.046 22.6244C10.1809 22.5233 10.3158 22.4183 10.4446 22.3121C10.456 22.3027 10.4698 22.2967 10.4845 22.2947C10.4992 22.2927 10.5142 22.2949 10.5277 22.3009C14.7377 24.2223 19.2956 24.2223 23.4558 22.3009C23.4694 22.2945 23.4845 22.292 23.4994 22.2938C23.5143 22.2956 23.5284 22.3016 23.54 22.3111C23.6688 22.4172 23.8037 22.5233 23.9395 22.6244C23.9503 22.6325 23.959 22.6431 23.9648 22.6554C23.9705 22.6676 23.9732 22.6811 23.9725 22.6946C23.9718 22.7082 23.9677 22.7213 23.9608 22.7329C23.9538 22.7445 23.944 22.7542 23.9324 22.7611C23.2913 23.1354 22.6197 23.4549 21.9247 23.7162C21.9139 23.7203 21.9041 23.7266 21.896 23.7348C21.8878 23.7429 21.8814 23.7527 21.8773 23.7635C21.8732 23.7743 21.8714 23.7858 21.872 23.7974C21.8726 23.8089 21.8757 23.8202 21.881 23.8304C22.2659 24.5735 22.7048 25.2873 23.1941 25.9661C23.204 25.98 23.2181 25.9904 23.2343 25.9959C23.2505 26.0014 23.268 26.0017 23.2844 25.9967C25.598 25.2887 27.7739 24.1911 29.7183 22.7511C29.7278 22.7442 29.7357 22.7353 29.7414 22.7251C29.7472 22.7149 29.7507 22.7036 29.7518 22.6919C30.2883 17.1452 28.8535 12.327 25.9484 8.05574ZM12.7342 19.7695C11.4666 19.7695 10.4222 18.6064 10.4222 17.1778C10.4222 15.7493 11.4464 14.586 12.7342 14.586C14.032 14.586 15.0663 15.7594 15.0461 17.1777C15.0461 18.6064 14.0219 19.7695 12.7342 19.7695ZM21.282 19.7695C20.0146 19.7695 18.9702 18.6064 18.9702 17.1778C18.9702 15.7493 19.9943 14.586 21.282 14.586C22.58 14.586 23.6142 15.7594 23.594 17.1777C23.594 18.6064 22.58 19.7695 21.282 19.7695Z" fill="#9CA3AF"/>
</svg>
