<svg width="29" height="29" viewBox="0 0 33 33" fill="none" xmlns="http://www.w3.org/2000/svg">
<path fill-rule="evenodd" clip-rule="evenodd" d="M16.5 2.75C8.90588 2.75 2.75 8.9155 2.75 16.5234C2.75 22.6078 6.68937 27.7709 12.1536 29.5914C12.8411 29.7179 13.0914 29.293 13.0914 28.9273C13.0914 28.6014 13.0804 27.7337 13.0735 26.5856C9.24825 27.4175 8.44112 24.739 8.44112 24.739C7.81687 23.1468 6.91487 22.7232 6.91487 22.7232C5.66637 21.8707 7.00975 21.8873 7.00975 21.8873C8.38888 21.9835 9.11488 23.3063 9.11488 23.3063C10.3414 25.41 12.3337 24.8022 13.1161 24.4502C13.2426 23.5606 13.5974 22.9543 13.9906 22.6105C10.9381 22.2626 7.7275 21.0801 7.7275 15.8029C7.7275 14.3 8.26375 13.0694 9.14238 12.1069C9.00075 11.759 8.52913 10.3579 9.27713 8.46313C9.27713 8.46313 10.4321 8.09188 13.0584 9.87388C14.1801 9.56796 15.3374 9.41214 16.5 9.4105C17.6688 9.416 18.8444 9.56863 19.943 9.87388C22.5679 8.09188 23.7201 8.46175 23.7201 8.46175C24.4709 10.3579 23.9979 11.759 23.8576 12.1069C24.7376 13.0694 25.2711 14.3 25.2711 15.8029C25.2711 21.0939 22.055 22.2585 18.9929 22.5995C19.4865 23.0244 19.9251 23.8645 19.9251 25.1501C19.9251 26.9899 19.9086 28.4763 19.9086 28.9273C19.9086 29.2958 20.1561 29.7248 20.8546 29.59C23.5927 28.6716 25.9728 26.916 27.6588 24.5713C29.3447 22.2266 30.2512 19.4113 30.25 16.5234C30.25 8.9155 24.0927 2.75 16.5 2.75Z" fill="#9CA3AF"/>
</svg>
