<svg width="50" height="34" viewBox="0 0 40 24" fill="none" xmlns="http://www.w3.org/2000/svg">
<rect width="40" height="24" rx="12" fill="#818282" fill-opacity="0.2"/>
<path d="M26.0703 8.18994H13.9302C13.5346 8.18994 13.2139 8.42086 13.2139 8.7057V8.76C13.2139 9.04484 13.5346 9.27576 13.9302 9.27576H26.0703C26.4659 9.27576 26.7866 9.04484 26.7866 8.76V8.7057C26.7866 8.42086 26.4659 8.18994 26.0703 8.18994Z" fill="#C1E4F6"/>
<path d="M26.0703 11.457H13.9302C13.5346 11.457 13.2139 11.6879 13.2139 11.9728V12.0271C13.2139 12.3119 13.5346 12.5428 13.9302 12.5428H26.0703C26.4659 12.5428 26.7866 12.3119 26.7866 12.0271V11.9728C26.7866 11.6879 26.4659 11.457 26.0703 11.457Z" fill="#C1E4F6"/>
<path d="M26.0703 14.7241H13.9302C13.5346 14.7241 13.2139 14.955 13.2139 15.2399V15.2942C13.2139 15.579 13.5346 15.8099 13.9302 15.8099H26.0703C26.4659 15.8099 26.7866 15.579 26.7866 15.2942V15.2399C26.7866 14.955 26.4659 14.7241 26.0703 14.7241Z" fill="#C1E4F6"/>
</svg>
