<svg width="41" height="41" viewBox="0 0 41 41" fill="none" xmlns="http://www.w3.org/2000/svg">
<path d="M20.6542 0.787109C9.60849 0.787109 0.654297 9.7413 0.654297 20.7871C0.654297 31.8328 9.60849 40.787 20.6542 40.787C31.7 40.787 40.6542 31.8328 40.6542 20.7871C40.6542 9.7413 31.7 0.787109 20.6542 0.787109Z" fill="#2F6E86"/>
<path d="M30.3858 12.289L26.8136 30.2994C26.8136 30.2994 26.3141 31.5484 24.9402 30.9489L16.6968 24.6289L13.6993 23.1802L8.65338 21.4814C8.65338 21.4814 7.87901 21.2067 7.80401 20.6072C7.72917 20.0077 8.67838 19.683 8.67838 19.683L28.7371 11.8143C28.7371 11.8143 30.3858 11.0899 30.3858 12.289Z" fill="white"/>
<path d="M16.0631 30.0983C16.0631 30.0983 15.8225 30.0758 15.5227 29.1264C15.223 28.1772 13.6992 23.1813 13.6992 23.1813L25.8143 15.4876C25.8143 15.4876 26.5139 15.0629 26.4889 15.4876C26.4889 15.4876 26.6137 15.5624 26.239 15.9121C25.8643 16.262 16.7217 24.4802 16.7217 24.4802" fill="#D2E5F1"/>
<path d="M19.8578 27.0532L16.5972 30.026C16.5972 30.026 16.3424 30.2194 16.0635 30.0982L16.6878 24.5762" fill="#B5CFE4"/>
</svg>
