<svg width="25" height="25" viewBox="0 0 29 23" fill="none" xmlns="http://www.w3.org/2000/svg">
<path d="M9.39875 22.8484C19.7759 22.8484 25.4519 14.2505 25.4519 6.7953C25.4519 6.55055 25.4519 6.30717 25.4354 6.06655C26.5397 5.26702 27.4928 4.27714 28.25 3.1433C27.2202 3.5998 26.1278 3.89922 25.0091 4.03155C26.187 3.32625 27.0685 2.21703 27.4896 0.910298C26.3823 1.56739 25.171 2.03055 23.9077 2.2798C23.0572 1.37472 21.9319 0.77532 20.7062 0.574392C19.4806 0.373464 18.2228 0.582221 17.1278 1.16834C16.0328 1.75446 15.1615 2.68525 14.6489 3.81658C14.1363 4.94791 14.011 6.21668 14.2924 7.42642C12.0492 7.314 9.8547 6.73112 7.85139 5.7156C5.84807 4.70009 4.0807 3.27464 2.664 1.5318C1.94256 2.7737 1.72156 4.24388 2.04599 5.643C2.37041 7.04212 3.21588 8.265 4.41025 9.06267C3.51273 9.03669 2.63462 8.79523 1.85 8.35867V8.43017C1.85054 9.7327 2.30154 10.995 3.12655 12.0029C3.95155 13.0109 5.09977 13.7025 6.3765 13.9604C5.54574 14.1869 4.6741 14.2198 3.82862 14.0567C4.1891 15.1779 4.89106 16.1585 5.8363 16.8611C6.78154 17.5638 7.92279 17.9534 9.10038 17.9754C7.93041 18.8947 6.59071 19.5743 5.15787 19.9754C3.72504 20.3765 2.22719 20.4912 0.75 20.3129C3.33033 21.9689 6.33276 22.8472 9.39875 22.8429" fill="#9CA3AF"/>
</svg>
